<svg width="17" height="16" viewBox="0 0 17 16" fill="none" xmlns="http://www.w3.org/2000/svg">
<path d="M9.28166 0.220798L11.4895 4.89436C11.5245 5.00476 11.6296 5.07836 11.7698 5.07836L16.676 5.81435C16.9563 5.85115 17.0615 6.21915 16.8863 6.43995L13.3468 10.0831C13.2767 10.1567 13.2417 10.3039 13.2417 10.4143L14.0827 15.5663C14.1178 15.8607 13.8374 16.0815 13.5571 15.9711L9.17653 13.5423C9.0714 13.4687 8.96627 13.4687 8.86113 13.5423L4.41052 15.9343C4.16521 16.0815 3.84981 15.8607 3.88485 15.5295L4.72592 10.3775C4.76096 10.2671 4.69087 10.1199 4.62078 10.0463L1.08132 6.43995C0.871051 6.25595 0.976184 5.88795 1.29158 5.81435L6.19777 5.07836C6.30291 5.07836 6.40804 4.96796 6.47813 4.89436L8.68591 0.220798C8.79105 -0.0735994 9.14149 -0.0735994 9.28166 0.220798Z" fill="#5D6D7E"/>
</svg>
