<svg width="16" height="17" viewBox="0 0 16 17" fill="none" xmlns="http://www.w3.org/2000/svg">
<path d="M5.41843 16.5C5.98744 16.5 6.14264 16.2756 6.14264 15.9992C6.14264 15.7518 6.13384 15.0966 6.12944 14.2284C3.1812 14.8564 2.55939 12.8311 2.55939 12.8311C2.07718 11.6291 1.38017 11.3075 1.38017 11.3075C0.42016 10.6619 1.45437 10.6751 1.45437 10.6751C2.51879 10.7475 3.0778 11.7483 3.0778 11.7483C4.02281 13.3408 5.55883 12.8807 6.16484 12.6147C6.26024 11.9407 6.53325 11.4823 6.83605 11.2219C4.48222 10.9613 2.00818 10.0657 2.00818 6.07526C2.00818 4.93844 2.41899 4.00943 3.099 3.28062C2.9798 3.01741 2.62199 1.9584 3.1918 0.52398C3.1918 0.52398 4.07941 0.244776 6.10644 1.59179C6.95445 1.36039 7.85526 1.24559 8.75628 1.24019C9.65729 1.24539 10.5581 1.36039 11.4061 1.59179C13.4199 0.244776 14.3076 0.52398 14.3076 0.52398C14.8772 1.9584 14.5196 3.01741 14.4136 3.28062C15.0892 4.00923 15.5 4.93844 15.5 6.07526C15.5 10.0763 13.0225 10.9569 10.6641 11.2131C11.0351 11.5257 11.3795 12.1643 11.3795 13.1404C11.3795 14.5342 11.3663 15.6542 11.3663 15.9924C11.3663 16.2654 11.4843 16.487 12.0949 16.487L5.41843 16.5Z" fill="#5D6D7E"/>
</svg>
