<svg width="170" height="43" viewBox="0 0 170 43" fill="none" xmlns="http://www.w3.org/2000/svg">
<g clip-path="url(#clip0_160_179)">
<path d="M33.608 31.4337C32.3973 30.3651 31.7926 28.9464 31.7939 27.1776H35.7356C35.7356 27.9219 35.9799 28.521 36.4686 28.975C36.9573 29.4289 37.6086 29.6556 38.4223 29.655H41.5285C42.3187 29.655 42.9404 29.521 43.3938 29.2531C43.8471 28.9852 44.0741 28.619 44.0747 28.1544V27.3869C44.0745 27.2262 44.0383 27.0676 43.9688 26.9227C43.8992 26.7779 43.7981 26.6504 43.6729 26.5497C43.4056 26.3171 43.0393 26.1543 42.5742 26.0613L36.5384 25.0147C35.1895 24.7821 34.1196 24.2878 33.3289 23.5318C32.5381 22.7758 32.1418 21.8976 32.14 20.8972V19.7464C32.14 18.3044 32.7155 17.1645 33.8666 16.3266C35.0177 15.4887 36.6054 15.0704 38.6297 15.0717H41.4206C43.2583 15.0717 44.7467 15.5715 45.886 16.5713C47.0253 17.5711 47.595 18.8853 47.595 20.5139H43.6561C43.6561 19.885 43.4524 19.3864 43.0449 19.0133C42.6374 18.6403 42.0969 18.4552 41.4225 18.4552H38.666C37.8529 18.4552 37.2253 18.5829 36.7831 18.8384C36.3409 19.094 36.1195 19.4543 36.1188 19.9194V20.6181C36.1185 20.779 36.1546 20.9379 36.2243 21.0829C36.2941 21.2279 36.3957 21.3552 36.5217 21.4554C36.8258 21.7045 37.1947 21.8617 37.585 21.9084L43.8301 23.0248C45.1083 23.2797 46.1316 23.7678 46.9001 24.4891C47.6685 25.2104 48.0512 26.06 48.048 27.0381V28.3293C48.048 29.7719 47.4551 30.9174 46.2693 31.7659C45.0835 32.6143 43.502 33.0388 41.5248 33.0394H38.4223C36.4221 33.0394 34.8174 32.5042 33.608 31.4337Z" fill="#000228"/>
<path d="M51.8362 31.19C50.5456 29.9564 49.9003 28.3284 49.9003 26.3059V21.9093C49.9003 20.5604 50.1909 19.3684 50.772 18.3333C51.3457 17.3066 52.2068 16.4699 53.2494 15.9257C54.318 15.3576 55.5509 15.0729 56.9482 15.0717H59.7391C61.7393 15.0717 63.3502 15.6472 64.572 16.7983C65.7938 17.9494 66.4044 19.467 66.4038 21.3512H62.4602C62.4602 20.5127 62.21 19.8323 61.7095 19.3101C61.209 18.7879 60.5519 18.5262 59.7382 18.5249H56.9789C56.0722 18.5249 55.3339 18.8623 54.7639 19.5371C54.1939 20.2119 53.909 21.0839 53.909 22.1531V26.0603C53.909 27.1072 54.1939 27.956 54.7639 28.6066C55.3339 29.2572 56.084 29.5828 57.0143 29.5834H59.7698C60.6294 29.5834 61.3213 29.2696 61.8453 28.6419C62.3694 28.0143 62.6311 27.2003 62.6305 26.1999H66.5731C66.5731 28.2465 65.951 29.8978 64.7069 31.1537C63.4628 32.4096 61.8171 33.0382 59.7698 33.0394H56.9789C54.8405 33.0394 53.1253 32.423 51.8335 31.19" fill="#000228"/>
<path d="M70.0478 31.6951C68.9668 30.8002 68.4263 29.6082 68.4263 28.1191V26.8669C68.4263 25.4007 68.99 24.2258 70.1176 23.342C71.2451 22.4582 72.728 22.0163 74.5662 22.0163H76.7283C77.4348 22.0235 78.1377 22.1173 78.8214 22.2954C79.5108 22.4607 80.1784 22.7065 80.8104 23.0275V20.8618C80.8104 20.1418 80.5778 19.5606 80.1127 19.1184C79.6475 18.6762 79.0428 18.4551 78.2986 18.4551H75.3691C74.6007 18.4551 73.9842 18.6356 73.5197 18.9966C73.2981 19.1584 73.1189 19.3715 72.9974 19.6175C72.8759 19.8636 72.8157 20.1354 72.8219 20.4097H68.9147C68.9147 18.8052 69.5076 17.5143 70.6934 16.5369C71.8792 15.5594 73.4381 15.0707 75.37 15.0707H78.2995C80.2538 15.0707 81.8241 15.6 83.0106 16.6587C84.197 17.7174 84.7899 19.1184 84.7893 20.8618V32.7603H81.0551V30.562C80.4962 31.3055 79.7814 31.9176 78.961 32.3556C78.1243 32.809 77.2991 33.0357 76.4854 33.0357H74.3216C72.5534 33.0357 71.1288 32.5879 70.0478 31.6923V31.6951ZM76.7283 29.8959C77.6273 29.9063 78.5066 29.6318 79.2401 29.1117C79.9722 28.6054 80.5226 27.8776 80.8104 27.0353V26.198C80.4153 25.8724 79.8572 25.6107 79.1359 25.4128C78.3965 25.2133 77.6336 25.1138 76.8678 25.117H74.6704C73.9727 25.117 73.4086 25.2913 72.9782 25.6398C72.7704 25.8001 72.6033 26.0071 72.4904 26.2441C72.3776 26.481 72.3222 26.7413 72.3289 27.0036V27.9832C72.3203 28.2519 72.376 28.5187 72.4913 28.7614C72.6067 29.0041 72.7784 29.2158 72.9922 29.3787C73.4344 29.7279 74.0158 29.9021 74.7365 29.9015L76.7283 29.8959Z" fill="#000228"/>
<path d="M88.2937 31.5184C87.3988 30.6935 86.951 29.3852 86.9504 27.5935V8.33627H90.9628V27.4251C90.9628 28.1005 91.1023 28.5814 91.3814 28.8726C91.6605 29.1638 92.1256 29.3089 92.7768 29.3089H94.4514V32.7631H92.5685C90.6142 32.7631 89.1893 32.3501 88.2937 31.524" fill="#000228"/>
<path d="M98.7949 32.2366C97.7559 31.7395 96.8834 30.9516 96.2831 29.9685C95.6902 28.9917 95.3934 27.8636 95.3928 26.5841V21.9094C95.3928 20.5604 95.6896 19.3684 96.2831 18.3333C96.8701 17.3049 97.7426 16.4686 98.7949 15.9257C99.8766 15.3576 101.127 15.0729 102.547 15.0717H105.338C107.453 15.0717 109.151 15.6881 110.431 16.9211C111.711 18.154 112.351 19.7948 112.349 21.8433V25.331H99.4052V26.5878C99.4052 27.5181 99.6899 28.2624 100.259 28.8206C100.83 29.3787 101.59 29.6578 102.547 29.6578H105.232C106.162 29.6578 106.912 29.4311 107.482 28.9778C107.757 28.7675 107.978 28.4948 108.127 28.1823C108.276 27.8698 108.348 27.5264 108.338 27.1804H112.28C112.28 28.948 111.628 30.3667 110.326 31.4366C109.024 32.5064 107.314 33.0416 105.197 33.0423H102.547C101.127 33.0423 99.8766 32.7746 98.7949 32.2394V32.2366ZM108.407 22.328V21.8433C108.407 20.8194 108.128 19.9936 107.57 19.3659C107.011 18.7383 106.279 18.4241 105.371 18.4235H102.547C101.59 18.4235 100.815 18.7547 100.221 19.4171C99.6269 20.0795 99.3305 20.9477 99.3317 22.0219V22.3354L108.407 22.328Z" fill="#000228"/>
<path d="M116.5 18.804H113.499V15.3507H116.5V14.1293C116.5 12.2445 117.064 10.7851 118.193 9.75128C119.321 8.7174 120.908 8.19985 122.955 8.19861H125.083V11.6175H123.025C122.165 11.6175 121.529 11.8221 121.123 12.2287C120.717 12.6352 120.513 13.2808 120.513 14.1646V15.3507H124.699V18.804H120.513V32.7585H116.5V18.804Z" fill="#000228"/>
<path d="M128.083 31.5668C127.187 30.7413 126.739 29.433 126.738 27.6418V8.38464H130.752V27.4679C130.752 28.1433 130.891 28.6258 131.169 28.9154C131.448 29.205 131.913 29.3505 132.565 29.3517H134.239V32.8059H132.356C130.401 32.8059 128.976 32.3929 128.083 31.5668Z" fill="#000228"/>
<path d="M138.842 32.1274C137.803 31.63 136.93 30.8422 136.33 29.8593C135.737 28.8819 135.44 27.7537 135.439 26.4749V21.7992C135.439 20.4515 135.736 19.2595 136.33 18.2231C136.917 17.195 137.789 16.3591 138.842 15.8165C139.923 15.2471 141.174 14.9621 142.593 14.9615H145.383C147.499 14.9615 149.197 15.578 150.477 16.811C151.757 18.0439 152.397 19.6837 152.396 21.7304V25.2227H139.452V26.4786C139.452 27.4089 139.737 28.1532 140.306 28.7113C140.877 29.2695 141.637 29.5486 142.593 29.5486H145.278C146.209 29.5486 146.959 29.3219 147.529 28.8686C147.804 28.6583 148.025 28.3856 148.173 28.0731C148.322 27.7606 148.395 27.4172 148.385 27.0712H152.326C152.326 28.8388 151.675 30.2578 150.373 31.3283C149.07 32.3987 147.361 32.9324 145.244 32.9293H142.593C141.174 32.9293 139.924 32.662 138.842 32.1274ZM148.453 22.2188V21.7304C148.453 20.7058 148.174 19.88 147.616 19.253C147.058 18.626 146.326 18.3118 145.419 18.3106H142.593C141.637 18.3106 140.864 18.6421 140.272 19.3051C139.681 19.9681 139.384 20.8345 139.383 21.9043V22.2188H148.453Z" fill="#000228"/>
<path d="M158.801 23.9439L152.451 15.3963H156.917L161.104 21.0125L165.29 15.3963H169.755L163.407 23.9439L170 32.8059H165.499L161.104 26.8744L156.709 32.8059H152.208L158.801 23.9439Z" fill="#000228"/>
<path fill-rule="evenodd" clip-rule="evenodd" d="M0.00100708 11.2825C0.00100708 8.51488 2.66817 6.63103 5.55861 5.39652H5.57535C6.58101 5.04487 7.48712 4.69693 8.40625 4.37319C9.30864 4.06061 10.1878 3.78524 10.8613 3.58337C14.0057 2.64004 16.0356 1.9786 21.1262 0.383137C21.1262 0.331971 21.1262 0.433374 21.1262 0.433374V5.41047C21.1242 6.43726 20.7929 7.43633 20.181 8.26091C19.0898 9.78753 17.1938 10.9011 15.2439 11.7114C13.5573 12.4128 11.8335 12.8873 10.558 13.1999C9.99096 13.3424 9.43197 13.5154 8.88349 13.718C7.93646 14.0698 7.02037 14.4999 6.1447 15.0037C5.7211 15.245 5.29751 15.5064 4.87391 15.788C3.25457 16.8652 1.63399 18.2275 0.0121702 19.8748C0.0121702 18.0923 0.142413 16.3182 0.142413 14.5358C0.142413 13.0789 0.0493821 13.0203 0.0121702 12.0714C0.00472782 11.863 0.00100708 11.61 0.00100708 11.2825Z" fill="url(#paint0_linear_160_179)"/>
<path fill-rule="evenodd" clip-rule="evenodd" d="M0.14338 14.5395C0.14338 13.0827 0.0503502 13.024 0.0131382 12.0751C0.0884925 12.0965 0.160125 12.1189 0.23548 12.1477C4.03575 13.5869 15.244 11.7095 15.244 11.7095C13.5574 12.411 11.8335 12.8854 10.5581 13.198C9.991 13.3406 9.43202 13.5135 8.88354 13.7162C7.93651 14.068 7.02041 14.498 6.14474 15.0019C4.1018 16.1703 2.05762 17.794 0.012207 19.8729C0.0131373 18.096 0.14338 16.322 0.14338 14.5395Z" fill="#EB2B66"/>
<path fill-rule="evenodd" clip-rule="evenodd" d="M0.000915527 11.3523C0.000915527 8.58468 2.59831 6.70083 5.48968 5.46632H5.50643C6.43037 5.07302 7.37546 4.73139 8.33733 4.44299C8.33733 4.44299 2.11456 11.584 4.86638 15.8457C3.24766 16.9229 1.65778 18.3649 0.0344064 20.0162C0.0344064 18.2337 0.07441 16.388 0.07441 14.6084C0.07441 13.1515 0.0474304 13.0929 0.0139397 12.144C0.00463667 11.9328 0.000915527 11.677 0.000915527 11.3523Z" fill="#EB2B66"/>
<path fill-rule="evenodd" clip-rule="evenodd" d="M4.21334 12.6854C2.64485 12.6575 1.24754 12.505 0.306082 12.1477C0.230727 12.1189 0.159094 12.0966 0.0837402 12.0752C0.117231 13.0241 0.213983 13.0827 0.213983 14.5395C0.213983 16.321 0.0837402 18.0961 0.0837402 19.8776C0.17677 19.7845 0.276313 19.6841 0.372133 19.5892C1.74634 18.2 3.25141 16.9466 4.86641 15.8466C4.25892 14.8986 4.09798 13.8083 4.21334 12.6854Z" fill="#DC1476"/>
<path fill-rule="evenodd" clip-rule="evenodd" d="M0.000915527 11.2825C0.000915527 11.2825 2.85693 14.1525 6.14554 15.0037C4.10261 16.1722 2.05843 17.7959 0.0130099 19.8748C0.0130099 18.0923 0.143251 16.3182 0.143251 14.5358C0.143251 12.7533 0.000915527 13.0678 0.000915527 11.2825Z" fill="#B40A6A"/>
<path fill-rule="evenodd" clip-rule="evenodd" d="M8.88251 13.7218C16.3947 9.41915 16.4933 5.87471 21.1243 0.434326V5.41143C21.1243 10.2313 14.0857 12.3273 10.558 13.2036C9.99059 13.3461 9.43129 13.5191 8.88251 13.7218Z" fill="#FFC158"/>
<path d="M15.2439 11.7095C15.2439 11.7095 13.5228 11.9979 11.2008 12.2621C10.5142 12.7412 9.74952 13.2269 8.88434 13.7218C9.43282 13.5191 9.9918 13.3462 10.5589 13.2036C11.8297 12.8873 13.5563 12.4138 15.2448 11.7151L15.2439 11.7095Z" fill="#F48166"/>
<path fill-rule="evenodd" clip-rule="evenodd" d="M5.57715 5.39096C11.5218 3.18522 13.3963 2.90985 21.1243 0.36734C21.1243 1.00832 21.1243 5.34444 21.1243 5.34444C21.1341 6.39282 20.8037 7.41612 20.1828 8.26093C19.1074 6.19008 16.6347 4.91185 11.3841 4.83371C8.0843 4.7844 5.57715 5.39096 5.57715 5.39096Z" fill="#FFC158"/>
<path fill-rule="evenodd" clip-rule="evenodd" d="M21.1242 0.434326C19.431 2.42331 18.3435 4.15552 17.2783 5.77145C18.7277 6.36033 19.6357 7.2069 20.1827 8.26093C20.3993 7.95839 20.5839 7.63414 20.7335 7.29342C20.7335 7.28505 20.74 7.27761 20.7437 7.26923L20.78 7.1762C20.9313 6.79208 21.0354 6.39096 21.0898 5.9817C21.0944 5.94077 21.1 5.89983 21.1037 5.85797C21.1177 5.71284 21.1242 5.56493 21.1242 5.41515V0.434326Z" fill="#FFDE70"/>
<path fill-rule="evenodd" clip-rule="evenodd" d="M21.1252 31.6765C21.1252 34.4442 18.4571 36.328 15.5667 37.5625H15.5537L15.5369 37.5681L15.1294 37.7225L14.8187 37.8444C14.2959 38.0481 13.8707 38.2165 13.4177 38.384L13.0307 38.5189H13.0223H13.013H13.0056L12.7404 38.6054C12.0808 38.8138 11.5003 38.9989 10.9468 39.1766L10.5877 39.292L10.4017 39.3515C9.47136 39.6501 8.60153 39.9236 7.69263 40.2083L7.57634 40.2446C5.60783 40.8595 3.43 41.5303 0.00278322 42.6206V37.5411C0.00133867 36.6439 0.255628 35.7649 0.735857 35.007C0.756324 34.9735 0.777721 34.941 0.800048 34.9065L0.871682 34.8014C0.8968 34.7651 0.920057 34.7288 0.946106 34.6926C2.03642 33.1659 3.93329 32.0524 5.8832 31.2412C7.56983 30.5397 9.29367 30.0653 10.5691 29.7527C11.1362 29.6101 11.6952 29.4372 12.2436 29.2345C13.191 28.8827 14.1074 28.4527 14.9834 27.9488C15.4067 27.7079 15.8309 27.4446 16.2532 27.1637C17.8726 26.0864 19.4932 24.7244 21.115 23.0778C21.115 24.8602 20.9857 26.6343 20.9857 28.4168C20.9857 29.8736 21.0787 29.9322 21.115 30.8811C21.1206 31.096 21.1252 31.3509 21.1252 31.6765Z" fill="url(#paint1_linear_160_179)"/>
<path fill-rule="evenodd" clip-rule="evenodd" d="M20.9829 28.4196C20.9829 29.8764 21.0759 29.935 21.1131 30.8839C21.0369 30.8625 20.9662 30.8402 20.8908 30.8114C17.0905 29.3722 5.88229 31.2495 5.88229 31.2495C7.568 30.5481 9.29277 30.0736 10.5673 29.761C11.1344 29.6187 11.6934 29.4458 12.2418 29.2429C13.1891 28.8909 14.1055 28.4609 14.9815 27.9572C17.0239 26.7887 19.068 25.1651 21.1141 23.0862C21.1131 24.863 20.9829 26.6371 20.9829 28.4196Z" fill="#1949B1"/>
<path fill-rule="evenodd" clip-rule="evenodd" d="M21.1252 31.6766C21.1252 34.4442 18.4571 36.3281 15.5676 37.5626C15.5676 37.5626 14.2057 38.1031 13.0102 38.5245C13.0102 38.5245 19.0032 31.4282 16.2514 27.1674C17.8701 26.0901 19.4907 24.7278 21.1131 23.0806C21.1131 24.8631 20.9829 26.6371 20.9829 28.4196C20.9829 29.8764 21.0759 29.935 21.1131 30.884C21.1215 31.0961 21.1252 31.3519 21.1252 31.6766Z" fill="#1848B2"/>
<path fill-rule="evenodd" clip-rule="evenodd" d="M20.7652 23.4295L20.6461 23.5467L20.4182 23.7709L20.2796 23.9039L20.0638 24.1086L19.9242 24.2397C19.8312 24.3216 19.7484 24.4025 19.66 24.4826L19.447 24.6742C19.3847 24.7309 19.3223 24.7868 19.2609 24.8417C19.1995 24.8965 19.1372 24.9505 19.0749 25.0035L18.9214 25.1366C18.8562 25.1924 18.7911 25.2482 18.7251 25.3031L18.5883 25.4175C18.5185 25.4752 18.4497 25.5338 18.3799 25.5905L18.3623 25.6045C18.1979 25.7385 18.0339 25.8696 17.8701 25.998L17.7427 26.0966L17.5427 26.2492L17.3938 26.3618L17.2078 26.4985L17.0142 26.639L16.8719 26.7413C16.7553 26.825 16.6403 26.9047 16.5268 26.9804L16.471 27.0185L16.2514 27.1674C16.8542 28.0977 17.0375 29.1713 16.9556 30.2727C18.5371 30.2997 19.9428 30.4523 20.8908 30.8114C20.9662 30.8402 21.0369 30.8625 21.1131 30.8839C21.0787 29.935 20.9829 29.8764 20.9829 28.4196C20.9829 26.6371 21.1131 24.863 21.1131 23.0806C20.9972 23.1991 20.8812 23.3153 20.7652 23.4295Z" fill="#2F2E7B"/>
<path fill-rule="evenodd" clip-rule="evenodd" d="M21.1253 31.6766C21.1253 31.6766 18.2693 28.8066 14.9807 27.9554C17.023 26.7869 19.0672 25.1632 21.1132 23.0843C21.1132 24.8668 20.983 26.6409 20.983 28.4233C20.983 30.2058 21.1253 29.8913 21.1253 31.6766Z" fill="#292361"/>
<path fill-rule="evenodd" clip-rule="evenodd" d="M21.1253 31.6766C21.1253 31.6766 18.2693 28.8066 14.9807 27.9554C17.023 26.7869 19.0672 25.1632 21.1132 23.0843C21.1132 24.8668 20.983 26.6409 20.983 28.4233C20.983 30.2058 21.1253 29.8913 21.1253 31.6766Z" fill="#292361"/>
<path fill-rule="evenodd" clip-rule="evenodd" d="M12.2409 29.2373C6.33534 32.7157 0.00186157 42.628 0.00186157 42.628V37.5477C0.00186157 32.7278 7.03957 30.6318 10.5673 29.7555C11.1341 29.6132 11.6928 29.4402 12.2409 29.2373Z" fill="#50CEFB"/>
<path fill-rule="evenodd" clip-rule="evenodd" d="M5.88228 31.2495C5.88228 31.2495 7.74287 30.9379 10.1998 30.6662C10.8453 30.142 11.5274 29.6645 12.2409 29.2373C11.6925 29.4402 11.1335 29.6132 10.5663 29.7555C9.29554 30.0718 7.56984 30.5453 5.88135 31.244L5.88228 31.2495Z" fill="#3B9AE0"/>
<path fill-rule="evenodd" clip-rule="evenodd" d="M21.1252 22.4824V31.2486C19.9633 28.8103 14.5722 26.5804 11.7292 26.012V17.2104C12.8949 17.4169 14.3341 17.6867 15.7295 18.0821C17.1882 18.5203 18.6237 19.0961 19.58 19.7734L19.5968 19.7864C19.8567 19.9656 20.0936 20.1762 20.3019 20.4134C20.3621 20.4835 20.418 20.5571 20.4694 20.6339C20.7261 21.0172 20.9187 21.2981 21.0276 21.6721C21.0331 21.6916 21.0387 21.7112 21.0434 21.7307C21.0555 21.7782 21.0666 21.8237 21.0759 21.874L21.0843 21.9196C21.1136 22.1057 21.1273 22.294 21.1252 22.4824Z" fill="#22C1C0"/>
<path d="M21.1252 22.4824V31.2486C21.1252 23.4685 11.7292 17.2104 11.7292 17.2104C12.8949 17.4169 14.3341 17.6867 15.7295 18.0821C17.1715 18.4905 18.5688 19.031 19.58 19.7734L19.5968 19.7864C19.8516 19.972 20.0878 20.182 20.3019 20.4134C20.6382 20.7689 20.8856 21.199 21.0238 21.6684C21.0294 21.6879 21.035 21.7075 21.0396 21.727C21.0517 21.7744 21.0629 21.82 21.0722 21.8703L21.0806 21.9158C21.1145 22.1027 21.1295 22.2925 21.1252 22.4824Z" fill="#68DBC3"/>
<path d="M21.1252 22.4824V31.2495C19.9633 28.8103 14.5731 26.5813 11.7339 26.0119C11.7339 26.0119 20.3856 24.4072 20.4703 20.5985C20.8833 21.2125 21.1252 21.5949 21.1252 22.4824Z" fill="#68DBC3"/>
<path d="M21.1206 22.2731C21.0836 21.6606 20.8559 21.0751 20.4694 20.5985C20.3763 21.834 19.4907 22.8257 18.3111 23.6062C19.887 25.8026 21.1243 28.4251 21.1243 31.2495V22.4824C21.1252 22.4117 21.1234 22.3419 21.1206 22.2731Z" fill="#A9F0C2"/>
<path fill-rule="evenodd" clip-rule="evenodd" d="M13.0307 38.518H13.0223H13.013H13.0056L12.7404 38.6045C12.1562 38.7905 11.5552 38.9822 10.9468 39.1757L10.5877 39.291L7.69263 40.2074L7.57635 40.2437C3.5342 41.52 0.00278366 42.6234 0.00278366 42.6234V37.3867C0.00278366 37.3867 -0.0567555 36.2704 0.736789 35.0145C0.757256 34.981 0.778653 34.9484 0.80098 34.914C0.847495 34.8442 0.89401 34.7744 0.948897 34.7037C2.02246 37.3904 6.43766 38.7161 13.5284 37.8612L13.8605 37.8202C14.1396 37.784 14.4308 37.743 14.7238 37.7002C14.828 37.6853 14.9322 37.6686 15.0383 37.6519C15.2039 37.627 15.3698 37.6004 15.536 37.5718H15.5527H15.5481C15.3909 37.6295 15.2522 37.6798 15.1285 37.7263L14.8187 37.8444" fill="#65E3FD"/>
<path fill-rule="evenodd" clip-rule="evenodd" d="M0.00279278 42.6252C0.0334926 42.5778 1.60012 40.133 3.88958 37.2584C2.38157 36.6704 1.38522 35.8006 0.947046 34.7028C0.885026 34.7865 0.827347 34.8693 0.77401 34.9512C0.270317 35.7235 0.00204511 36.6256 0.00186157 37.5477V42.6252H0.00279278Z" fill="#83F4FF"/>
<path fill-rule="evenodd" clip-rule="evenodd" d="M15.549 37.5654C15.3918 37.623 15.2476 37.6835 15.1239 37.73C15.0001 37.7765 13.9294 38.1952 13.0335 38.5115H13.0251H13.0158C13.0316 38.4938 13.2326 38.2538 13.5368 37.8482L13.8642 37.8072C14.1433 37.7709 14.4345 37.73 14.7276 37.6872C14.8317 37.6723 14.9369 37.6556 15.042 37.6388C15.2076 37.614 15.3735 37.5874 15.5397 37.5588L15.549 37.5654Z" fill="#3B9AE0"/>
<path fill-rule="evenodd" clip-rule="evenodd" d="M0.00372314 20.4767V11.7095C1.16567 14.1488 5.5697 15.8261 8.40897 16.3954V25.8491C5.08594 25.4659 2.20388 24.2239 0.878205 22.7019C0.324796 22.0918 0.0137477 21.3003 0.00372314 20.4767Z" fill="#9119F7"/>
<path d="M0.00372293 20.4767V11.7095C0.00372293 19.4915 8.40897 25.8501 8.40897 25.8501C5.33154 25.4779 -0.103261 23.7783 0.00372293 20.4767Z" fill="#C64DFB"/>
<path d="M0.013031 20.4785V11.7114C1.17497 14.1506 5.57901 15.827 8.41921 16.3973C8.41921 16.3973 0.855882 18.3723 0.655868 22.4256C0.244676 21.8117 0.013031 21.366 0.013031 20.4785Z" fill="#C64DFB"/>
<path d="M0.653072 22.4257C0.700517 21.1921 1.44848 20.1473 2.46343 19.2924C1.08101 17.0988 0.00372385 14.4939 0.00372385 11.7095V20.4767C0.00363623 20.6358 0.0117103 20.7947 0.0279125 20.953C0.106049 21.4895 0.321384 21.9968 0.653072 22.4257Z" fill="#E977FD"/>
<path fill-rule="evenodd" clip-rule="evenodd" d="M7.88428 5.01325C8.17453 4.64113 8.36989 4.41786 8.40245 4.38065L8.31873 4.40948C7.36703 4.7816 6.48976 5.05139 5.58365 5.39095C6.34314 5.2236 7.11114 5.09752 7.88428 5.01325Z" fill="#F48166"/>
<path d="M15.4969 37.4835C15.5287 37.4807 15.5583 37.4662 15.5799 37.4427C15.6015 37.4192 15.6135 37.3884 15.6135 37.3565C15.6135 37.3246 15.6015 37.2938 15.5799 37.2703C15.5583 37.2468 15.5287 37.2322 15.4969 37.2295C15.4651 37.2322 15.4355 37.2468 15.4139 37.2703C15.3923 37.2938 15.3803 37.3246 15.3803 37.3565C15.3803 37.3884 15.3923 37.4192 15.4139 37.4427C15.4355 37.4662 15.4651 37.4807 15.4969 37.4835Z" fill="#1848B2"/>
</g>
<defs>
<linearGradient id="paint0_linear_160_179" x1="0.00100708" y1="10.1234" x2="21.1272" y2="10.1234" gradientUnits="userSpaceOnUse">
<stop stop-color="#FF057E"/>
<stop offset="0.12" stop-color="#FF2768"/>
<stop offset="0.35" stop-color="#FF6144"/>
<stop offset="0.56" stop-color="#FF8F26"/>
<stop offset="0.74" stop-color="#FFB011"/>
<stop offset="0.9" stop-color="#FFC505"/>
<stop offset="1" stop-color="#FFCC00"/>
</linearGradient>
<linearGradient id="paint1_linear_160_179" x1="21.1252" y1="32.8543" x2="0.00185296" y2="32.8543" gradientUnits="userSpaceOnUse">
<stop stop-color="#0049E7"/>
<stop offset="0.32" stop-color="#0E78EF"/>
<stop offset="1" stop-color="#2DDAFF"/>
</linearGradient>
<clipPath id="clip0_160_179">
<rect width="170" height="42.2616" fill="white" transform="translate(0 0.369202)"/>
</clipPath>
</defs>
</svg>
