<svg width="50" height="50" viewBox="0 0 50 50" fill="none" xmlns="http://www.w3.org/2000/svg">
<path d="M29.9338 5.26853C27.8523 4.75154 25.7005 4.56814 23.538 4.72351C22.4874 4.799 21.4379 4.95535 20.4183 5.18855L19.3724 0.636496C20.6245 0.350265 21.9128 0.158175 23.2016 0.065597C25.8578 -0.125223 28.5034 0.100753 31.0652 0.737277L29.9338 5.26853Z" fill="#6879EB"/>
<path opacity="0.9" d="M40.6132 11.9276C38.5499 9.48086 35.9045 7.52793 32.9631 6.28037L34.7952 1.98291C38.4106 3.51621 41.6615 5.91563 44.1963 8.92188L40.6132 11.9276Z" fill="#6879EB"/>
<path opacity="0.8" d="M45.3328 23.5737L45.3303 23.5391C45.097 20.3084 44.1358 17.2749 42.4733 14.5226L46.4838 12.1128C48.5302 15.5009 49.7132 19.2324 50 23.2035L45.3328 23.5737Z" fill="#6879EB"/>
<path opacity="0.7" d="M46.2687 38.2307L42.298 35.7564C43.9958 33.0457 45.0371 29.9355 45.3095 26.7617L49.9744 27.1603C49.639 31.0673 48.3576 34.8957 46.2687 38.2307Z" fill="#6879EB"/>
<path opacity="0.6" d="M34.4209 48.1735L32.6626 43.8457C35.6192 42.6506 38.2938 40.7405 40.3975 38.3223L43.9338 41.3828C41.3483 44.3552 38.0588 46.7033 34.4209 48.1735Z" fill="#6879EB"/>
<path opacity="0.5" d="M26.8032 49.9347C24.1592 50.1243 21.5261 49.9013 18.9765 49.2717L20.1012 44.7388C22.1729 45.2501 24.3147 45.4311 26.4672 45.2768C27.5282 45.2005 28.5878 45.0417 29.6164 44.805L30.6696 49.3552C29.406 49.646 28.1052 49.8411 26.8032 49.9347Z" fill="#6879EB"/>
<path opacity="0.4" d="M15.2449 48.0312C11.6272 46.5033 8.37276 44.1087 5.83362 41.1063L9.412 38.0952C11.479 40.5389 14.1272 42.4878 17.0704 43.7307L15.2449 48.0312Z" fill="#6879EB"/>
<path opacity="0.3" d="M3.54069 37.9195C1.48217 34.5221 0.292537 30.7798 0.00479729 26.7957L0 26.7271L4.66972 26.3916L4.67579 26.4777C4.90861 29.7015 5.87511 32.744 7.54751 35.5037L3.54069 37.9195Z" fill="#6879EB"/>
<path opacity="0.2" d="M4.69761 23.2075L0.0335693 22.802C0.374666 18.8955 1.66191 15.0691 3.75587 11.7373L7.72274 14.2175C6.02088 16.9257 4.97478 20.0344 4.69761 23.2075Z" fill="#6879EB"/>
</svg>